<svg width="900" height="620" viewBox="0 0 900 620" xmlns="http://www.w3.org/2000/svg" style="background:white;font-family:Arial,sans-serif">

  <!-- Title -->
  <text x="450" y="38" text-anchor="middle" font-size="18" font-weight="600" fill="#1a1a1a">Autonomous Drone — System Architecture</text>
  <text x="450" y="58" text-anchor="middle" font-size="12" fill="#888">by Djalil — Kickstarter Project</text>

  <!-- ===== RC TRANSMITTER ===== -->
  <rect x="40" y="100" width="140" height="70" rx="10" fill="#E6F1FB" stroke="#185FA5" stroke-width="1.5"/>
  <text x="110" y="128" text-anchor="middle" font-size="13" font-weight="600" fill="#0C447C">RC Transmitter</text>
  <text x="110" y="146" text-anchor="middle" font-size="11" fill="#185FA5">RadioMaster Pocket</text>
  <text x="110" y="162" text-anchor="middle" font-size="11" fill="#185FA5">ELRS 2.4 GHz</text>

  <!-- RF arrow -->
  <line x1="180" y1="135" x2="240" y2="135" stroke="#378ADD" stroke-width="1.5" marker-end="url(#arr)"/>
  <text x="210" y="125" text-anchor="middle" font-size="10" fill="#378ADD">RF link</text>

  <!-- ===== ELRS RECEIVER ===== -->
  <rect x="240" y="100" width="150" height="70" rx="10" fill="#E6F1FB" stroke="#185FA5" stroke-width="1.5"/>
  <text x="315" y="126" text-anchor="middle" font-size="13" font-weight="600" fill="#0C447C">ELRS Receiver</text>
  <text x="315" y="143" text-anchor="middle" font-size="11" fill="#185FA5">SpeedyBee Nano 2.4G</text>
  <text x="315" y="158" text-anchor="middle" font-size="11" fill="#185FA5">4V5 · GND · T2 · R2</text>

  <!-- UART2 arrow down to Raspberry -->
  <line x1="315" y1="170" x2="315" y2="260" stroke="#7F77DD" stroke-width="1.5" marker-end="url(#arr)"/>
  <text x="340" y="218" font-size="10" fill="#534AB7">UART2</text>

  <!-- ===== RASPBERRY PI ===== -->
  <rect x="240" y="260" width="150" height="80" rx="10" fill="#EEEDFE" stroke="#534AB7" stroke-width="1.5"/>
  <text x="315" y="286" text-anchor="middle" font-size="13" font-weight="600" fill="#3C3489">Raspberry Pi</text>
  <text x="315" y="302" text-anchor="middle" font-size="11" fill="#534AB7">Zero W</text>
  <text x="315" y="318" text-anchor="middle" font-size="11" fill="#534AB7">Python · MAVLink</text>
  <text x="315" y="333" text-anchor="middle" font-size="11" fill="#534AB7">T1 · R1 · GND</text>

  <!-- Programme label -->
  <rect x="60" y="265" width="130" height="70" rx="8" fill="none" stroke="#B4B2A9" stroke-width="1" stroke-dasharray="5,4"/>
  <text x="125" y="288" text-anchor="middle" font-size="11" font-weight="600" fill="#5F5E5A">Programme</text>
  <text x="125" y="304" text-anchor="middle" font-size="10" fill="#888">Autopilot logic</text>
  <text x="125" y="319" text-anchor="middle" font-size="10" fill="#888">Computer Vision</text>
  <text x="125" y="334" text-anchor="middle" font-size="10" fill="#888">Waypoints / GPS</text>
  <line x1="190" y1="300" x2="238" y2="300" stroke="#B4B2A9" stroke-width="1" stroke-dasharray="4,3" marker-end="url(#arr-gray)"/>

  <!-- MAVLink arrow right to FC -->
  <line x1="390" y1="300" x2="460" y2="300" stroke="#D85A30" stroke-width="1.5" marker-end="url(#arr-coral)"/>
  <text x="425" y="292" text-anchor="middle" font-size="10" fill="#993C1D">MAVLink</text>
  <text x="425" y="305" text-anchor="middle" font-size="10" fill="#993C1D">UART1</text>

  <!-- ===== FLIGHT CONTROLLER ===== -->
  <rect x="460" y="260" width="160" height="90" rx="10" fill="#FAECE7" stroke="#993C1D" stroke-width="1.5"/>
  <text x="540" y="284" text-anchor="middle" font-size="13" font-weight="600" fill="#712B13">Flight Controller</text>
  <text x="540" y="300" text-anchor="middle" font-size="11" fill="#993C1D">SpeedBee F450 V3</text>
  <text x="540" y="316" text-anchor="middle" font-size="11" fill="#993C1D">ArduPilot / Betaflight</text>
  <text x="540" y="331" text-anchor="middle" font-size="11" fill="#993C1D">Elrs : 4V5 · GND · T6 · R6</text>
  <text x="540" y="346" text-anchor="middle" font-size="11" fill="#993C1D">Pie  : 4V5 · GND · T2 · R2</text>
  <!-- ELRS → FC arrow (top connection) -->
  <line x1="390" y1="130" x2="540" y2="130" stroke="#378ADD" stroke-width="1" stroke-dasharray="4,3"/>
  <line x1="540" y1="130" x2="540" y2="260" stroke="#378ADD" stroke-width="1" stroke-dasharray="4,3" marker-end="url(#arr)"/>
  <text x="490" y="120" font-size="9" fill="#185FA5">UART2 backup</text>

  <!-- FC → ESC arrow down -->
  <line x1="540" y1="340" x2="540" y2="410" stroke="#BA7517" stroke-width="1.5" marker-end="url(#arr-amber)"/>
  <text x="558" y="378" font-size="10" fill="#854F0B">8-pin</text>

  <!-- ===== ESC ===== -->
  <rect x="460" y="410" width="160" height="60" rx="10" fill="#FAEEDA" stroke="#854F0B" stroke-width="1.5"/>
  <text x="540" y="434" text-anchor="middle" font-size="13" font-weight="600" fill="#633806">ESC × 4</text>
  <text x="540" y="451" text-anchor="middle" font-size="11" fill="#854F0B">SpeedBee F450 V3 4-in-1</text>
  <text x="540" y="466" text-anchor="middle" font-size="11" fill="#854F0B">6S compatible</text>

  <!-- ESC → Motors arrow down -->
  <line x1="540" y1="470" x2="540" y2="530" stroke="#3B6D11" stroke-width="1.5" marker-end="url(#arr-green)"/>

  <!-- ===== MOTORS ===== -->
  <rect x="460" y="530" width="160" height="50" rx="10" fill="#EAF3DE" stroke="#3B6D11" stroke-width="1.5"/>
  <text x="540" y="553" text-anchor="middle" font-size="13" font-weight="600" fill="#27500A">Motors × 4</text>
  <text x="540" y="569" text-anchor="middle" font-size="11" fill="#3B6D11">AxisFlying AE2207 V2 — 6S</text>

  <!-- ===== GPS ===== -->
  <rect x="680" y="260" width="140" height="60" rx="10" fill="#E1F5EE" stroke="#0F6E56" stroke-width="1.5"/>
  <text x="750" y="284" text-anchor="middle" font-size="13" font-weight="600" fill="#085041">GPS Module</text>
  <text x="750" y="300" text-anchor="middle" font-size="11" fill="#0F6E56">GEPRC M10</text>
  <text x="750" y="316" text-anchor="middle" font-size="11" fill="#0F6E56">u-blox · 32 satellites</text>
  <line x1="680" y1="290" x2="622" y2="290" stroke="#1D9E75" stroke-width="1.5" marker-end="url(#arr-teal)"/>
  <text x="651" y="282" text-anchor="middle" font-size="9" fill="#0F6E56">UART</text>

  <!-- ===== CAMERA ===== -->
  <rect x="680" y="350" width="140" height="60" rx="10" fill="#E1F5EE" stroke="#0F6E56" stroke-width="1.5"/>
  <text x="750" y="374" text-anchor="middle" font-size="13" font-weight="600" fill="#085041">Camera</text>
  <text x="750" y="390" text-anchor="middle" font-size="11" fill="#0F6E56">Arducam 5MP</text>
  <text x="750" y="406" text-anchor="middle" font-size="11" fill="#0F6E56">CSI · Pi Zero</text>
  <line x1="680" y1="380" x2="392" y2="320" stroke="#1D9E75" stroke-width="1" stroke-dasharray="4,3" marker-end="url(#arr-teal)"/>

  <!-- ===== BATTERY ===== -->
  <rect x="680" y="440" width="140" height="60" rx="10" fill="#FAEEDA" stroke="#854F0B" stroke-width="1.5"/>
  <text x="750" y="464" text-anchor="middle" font-size="13" font-weight="600" fill="#633806">LiPo Battery</text>
  <text x="750" y="480" text-anchor="middle" font-size="11" fill="#854F0B">6S · 1800mAh · 150C</text>
  <text x="750" y="496" text-anchor="middle" font-size="11" fill="#854F0B">ManiaX · XT60</text>
  <line x1="680" y1="470" x2="622" y2="450" stroke="#BA7517" stroke-width="1.5" marker-end="url(#arr-amber)"/>
  <text x="651" y="455" text-anchor="middle" font-size="9" fill="#854F0B">Power</text>

  <!-- ===== FAILSAFE BOX ===== -->
  <rect x="40" y="410" width="160" height="80" rx="8" fill="none" stroke="#E24B4A" stroke-width="1" stroke-dasharray="5,4"/>
  <text x="120" y="433" text-anchor="middle" font-size="11" font-weight="600" fill="#A32D2D">Failsafe MAVLink</text>
  <text x="120" y="450" text-anchor="middle" font-size="10" fill="#E24B4A">Si perte signal :</text>
  <text x="120" y="465" text-anchor="middle" font-size="10" fill="#E24B4A">Retour automatique</text>
  <text x="120" y="480" text-anchor="middle" font-size="10" fill="#E24B4A">à la base (RTL)</text>
  <line x1="238" y1="450" x2="202" y2="450" stroke="#E24B4A" stroke-width="1" stroke-dasharray="4,3" marker-end="url(#arr-red)"/>

  <!-- ===== LEGEND ===== -->
  <rect x="40" y="545" width="380" height="55" rx="8" fill="#F1EFE8" stroke="#D3D1C7" stroke-width="0.5"/>
  <text x="56" y="563" font-size="10" font-weight="600" fill="#444441">Légende :</text>
  <line x1="56" y1="578" x2="90" y2="578" stroke="#378ADD" stroke-width="1.5"/>
  <text x="96" y="581" font-size="10" fill="#444441">Signal radio</text>
  <line x1="150" y1="578" x2="184" y2="578" stroke="#D85A30" stroke-width="1.5"/>
  <text x="190" y="581" font-size="10" fill="#444441">MAVLink UART</text>
  <line x1="270" y1="578" x2="304" y2="578" stroke="#BA7517" stroke-width="1.5"/>
  <text x="310" y="581" font-size="10" fill="#444441">Alimentation</text>
  <line x1="56" y1="594" x2="90" y2="594" stroke="#B4B2A9" stroke-width="1" stroke-dasharray="4,3"/>
  <text x="96" y="597" font-size="10" fill="#444441">Logiciel / optionnel</text>
  <line x1="210" y1="594" x2="244" y2="594" stroke="#1D9E75" stroke-width="1.5"/>
  <text x="250" y="597" font-size="10" fill="#444441">Capteurs</text>

  <!-- ===== ARROW MARKERS ===== -->
  <defs>
    <marker id="arr" viewBox="0 0 10 10" refX="8" refY="5" markerWidth="6" markerHeight="6" orient="auto-start-reverse">
      <path d="M2 1L8 5L2 9" fill="none" stroke="#378ADD" stroke-width="1.5" stroke-linecap="round" stroke-linejoin="round"/>
    </marker>
    <marker id="arr-coral" viewBox="0 0 10 10" refX="8" refY="5" markerWidth="6" markerHeight="6" orient="auto-start-reverse">
      <path d="M2 1L8 5L2 9" fill="none" stroke="#D85A30" stroke-width="1.5" stroke-linecap="round" stroke-linejoin="round"/>
    </marker>
    <marker id="arr-amber" viewBox="0 0 10 10" refX="8" refY="5" markerWidth="6" markerHeight="6" orient="auto-start-reverse">
      <path d="M2 1L8 5L2 9" fill="none" stroke="#BA7517" stroke-width="1.5" stroke-linecap="round" stroke-linejoin="round"/>
    </marker>
    <marker id="arr-green" viewBox="0 0 10 10" refX="8" refY="5" markerWidth="6" markerHeight="6" orient="auto-start-reverse">
      <path d="M2 1L8 5L2 9" fill="none" stroke="#3B6D11" stroke-width="1.5" stroke-linecap="round" stroke-linejoin="round"/>
    </marker>
    <marker id="arr-teal" viewBox="0 0 10 10" refX="8" refY="5" markerWidth="6" markerHeight="6" orient="auto-start-reverse">
      <path d="M2 1L8 5L2 9" fill="none" stroke="#1D9E75" stroke-width="1.5" stroke-linecap="round" stroke-linejoin="round"/>
    </marker>
    <marker id="arr-gray" viewBox="0 0 10 10" refX="8" refY="5" markerWidth="6" markerHeight="6" orient="auto-start-reverse">
      <path d="M2 1L8 5L2 9" fill="none" stroke="#B4B2A9" stroke-width="1.5" stroke-linecap="round" stroke-linejoin="round"/>
    </marker>
    <marker id="arr-red" viewBox="0 0 10 10" refX="8" refY="5" markerWidth="6" markerHeight="6" orient="auto-start-reverse">
      <path d="M2 1L8 5L2 9" fill="none" stroke="#E24B4A" stroke-width="1.5" stroke-linecap="round" stroke-linejoin="round"/>
    </marker>
  </defs>

</svg>
